<svg width="72" height="65" viewBox="0 0 72 65" fill="none" xmlns="http://www.w3.org/2000/svg">
<path d="M64.3777 15.9342C59.3296 10.5272 52.3911 7.5484 44.8492 7.5484C41.9008 7.5484 38.9926 7.99864 36.2092 8.89108C32.6534 3.83389 27.2192 0.714355 20.9162 0.714355C9.38413 0.714355 0 11.0498 0 23.7531V57.9595H0.0201117C0.209162 61.5655 3.1857 64.4317 6.83799 64.4317V23.7531C6.83799 14.8166 13.1531 7.5484 20.9162 7.5484C28.6793 7.5484 33.7877 14.3623 33.7877 23.7531V50.7637C37.4239 50.7637 40.3924 47.9215 40.6056 44.3397H40.6257V23.7531C40.6257 20.6617 40.1511 17.7552 39.2863 15.1101C41.0923 14.6277 42.9546 14.3824 44.8492 14.3824C56.4295 14.3824 65.162 23.6285 65.162 35.8896C65.162 48.1506 56.2404 57.7987 44.8492 57.7987H23.7318V23.7531C20.0796 23.7531 17.103 26.6194 16.914 30.2254H16.8939V64.6327H44.8492C60.0737 64.6327 72 52.0058 72 35.8896C72 28.2837 69.293 21.1964 64.3777 15.9342Z" fill="#373737"/>
</svg>
